<?xml version="1.0" encoding="UTF-8" standalone="no" ?>
<!DOCTYPE svg PUBLIC "-//W3C//DTD SVG 1.1//EN" "http://www.w3.org/Graphics/SVG/1.1/DTD/svg11.dtd">
<svg xmlns="http://www.w3.org/2000/svg" xmlns:xlink="http://www.w3.org/1999/xlink" version="1.1" width="1280" height="1024" viewBox="0 0 1280 1024" xml:space="preserve">
<desc>Created with Fabric.js 3.6.3</desc>
<defs>
</defs>
<g transform="matrix(1.9692780337941629 0 0 1.9692780337941629 640.0153846153846 512.012312418764)" id="background-logo"  >
<rect style="stroke: none; stroke-width: 1; stroke-dasharray: none; stroke-linecap: butt; stroke-dashoffset: 0; stroke-linejoin: miter; stroke-miterlimit: 4; fill: rgb(255,255,255); fill-rule: nonzero; opacity: 1;"  paint-order="stroke"  x="-325" y="-260" rx="0" ry="0" width="650" height="520" />
</g>
<g transform="matrix(1.9692780337941629 0 0 1.9692780337941629 631.3466227106228 697.7051364999861)" id="text-logo-path"  >
<path style="stroke: none; stroke-width: 0; stroke-dasharray: none; stroke-linecap: butt; stroke-dashoffset: 0; stroke-linejoin: miter; stroke-miterlimit: 4; fill: rgb(127,216,88); fill-rule: nonzero; opacity: 1;"  paint-order="stroke"  transform=" translate(-315.0064852439636, 21.605)" d="M 0.37 -0.31 L 0.37 -0.31 L 8.06 -42.9 Q 8.12 -43.15 8.37 -43.15 L 8.37 -43.15 L 17.36 -43.15 Q 17.61 -43.15 17.67 -42.9 L 17.67 -42.9 L 25.05 -0.31 Q 25.11 0 24.8 0 L 24.8 0 L 17.92 0 Q 17.67 0 17.61 -0.31 L 17.61 -0.31 L 16.93 -4.84 L 8.49 -4.84 L 7.81 -0.31 Q 7.75 0 7.5 0 L 7.5 0 L 0.62 0 Q 0.37 0 0.37 -0.31 Z M 12.52 -28.89 L 9.73 -11.47 L 15.69 -11.47 L 13.14 -28.89 L 12.77 -31.19 L 12.52 -28.89 Z M 39 0.62 L 39 0.62 Q 35.65 0.62 32.92 -1.05 Q 30.19 -2.73 28.55 -5.55 Q 26.91 -8.37 26.91 -11.84 L 26.91 -11.84 L 26.91 -31.5 Q 26.91 -34.84 28.55 -37.66 Q 30.19 -40.49 32.95 -42.16 Q 35.71 -43.83 39 -43.83 L 39 -43.83 Q 42.41 -43.83 45.17 -42.19 Q 47.93 -40.55 49.54 -37.76 Q 51.15 -34.97 51.15 -31.5 L 51.15 -31.5 L 51.15 -28.64 Q 51.15 -28.4 50.84 -28.4 L 50.84 -28.4 L 43.9 -28.4 Q 43.65 -28.4 43.65 -28.64 L 43.65 -28.64 L 43.65 -31 Q 43.65 -33.36 42.31 -34.91 Q 40.98 -36.46 39 -36.46 L 39 -36.46 Q 37.2 -36.46 35.8 -34.97 Q 34.41 -33.48 34.41 -31.5 L 34.41 -31.5 L 34.41 -11.84 Q 34.41 -9.8 35.77 -8.34 Q 37.14 -6.88 39 -6.88 L 39 -6.88 Q 40.98 -6.88 42.31 -8.31 Q 43.65 -9.73 43.65 -11.84 L 43.65 -11.84 L 43.65 -14.88 L 39.31 -14.88 Q 39 -14.88 39 -15.19 L 39 -15.19 L 39 -22.13 Q 39 -22.44 39.31 -22.44 L 39.31 -22.44 L 50.9 -22.44 Q 51.15 -22.44 51.15 -22.13 L 51.15 -22.13 L 51.15 -11.84 Q 51.15 -8.37 49.51 -5.55 Q 47.86 -2.73 45.14 -1.05 Q 42.41 0.62 39 0.62 Z M 62.81 0 L 55.8 0 Q 55.55 0 55.55 -0.31 L 55.55 -0.31 L 55.68 -42.9 Q 55.68 -43.15 55.92 -43.15 L 55.92 -43.15 L 68.45 -43.15 Q 71.8 -43.15 74.62 -41.51 Q 77.44 -39.87 79.11 -37.11 Q 80.79 -34.35 80.79 -30.88 L 80.79 -30.88 Q 80.79 -28.58 80.1 -26.75 Q 79.42 -24.92 78.49 -23.65 Q 77.56 -22.38 76.82 -21.76 L 76.82 -21.76 Q 80.17 -18.04 80.17 -13.02 L 80.17 -13.02 L 80.23 -0.31 Q 80.23 0 79.92 0 L 79.92 0 L 72.91 0 Q 72.66 0 72.66 -0.19 L 72.66 -0.19 L 72.66 -13.02 Q 72.66 -15.25 71.08 -16.89 Q 69.5 -18.54 67.21 -18.54 L 67.21 -18.54 L 63.12 -18.54 L 63.05 -0.31 Q 63.05 0 62.81 0 L 62.81 0 Z M 63.12 -35.71 L 63.12 -25.98 L 68.45 -25.98 Q 70.37 -25.98 71.86 -27.4 Q 73.35 -28.83 73.35 -30.88 L 73.35 -30.88 Q 73.35 -32.86 71.89 -34.29 Q 70.43 -35.71 68.45 -35.71 L 68.45 -35.71 L 63.12 -35.71 Z M 92.75 0 L 85.75 0 Q 85.44 0 85.44 -0.31 L 85.44 -0.31 L 85.5 -42.9 Q 85.5 -43.15 85.75 -43.15 L 85.75 -43.15 L 92.69 -43.15 Q 92.94 -43.15 92.94 -42.9 L 92.94 -42.9 L 93 -0.31 Q 93 0 92.75 0 L 92.75 0 Z M 109.86 0.62 L 109.86 0.62 Q 106.45 0.62 103.69 -1.08 Q 100.94 -2.79 99.32 -5.64 Q 97.71 -8.49 97.71 -12.03 L 97.71 -12.03 L 97.77 -31.37 Q 97.77 -34.78 99.36 -37.6 Q 100.94 -40.42 103.69 -42.13 Q 106.45 -43.83 109.86 -43.83 L 109.86 -43.83 Q 113.27 -43.83 116 -42.16 Q 118.73 -40.49 120.34 -37.66 Q 121.95 -34.84 121.95 -31.37 L 121.95 -31.37 L 121.95 -28.52 Q 121.95 -28.27 121.71 -28.27 L 121.71 -28.27 L 114.76 -28.27 Q 114.51 -28.27 114.51 -28.52 L 114.51 -28.52 L 114.51 -31.37 Q 114.51 -33.42 113.18 -34.91 Q 111.85 -36.39 109.86 -36.39 L 109.86 -36.39 Q 107.63 -36.39 106.45 -34.88 Q 105.28 -33.36 105.28 -31.37 L 105.28 -31.37 L 105.28 -12.03 Q 105.28 -9.73 106.61 -8.31 Q 107.94 -6.88 109.86 -6.88 L 109.86 -6.88 Q 111.85 -6.88 113.18 -8.46 Q 114.51 -10.04 114.51 -12.03 L 114.51 -12.03 L 114.51 -14.88 Q 114.51 -15.13 114.76 -15.13 L 114.76 -15.13 L 121.77 -15.13 Q 122.02 -15.13 122.02 -14.88 L 122.02 -14.88 L 122.02 -12.03 Q 122.02 -8.49 120.37 -5.64 Q 118.73 -2.79 116 -1.08 Q 113.27 0.62 109.86 0.62 Z M 155.99 0 L 135.97 0 Q 135.72 0 135.72 -0.31 L 135.72 -0.31 L 135.78 -42.9 Q 135.78 -43.15 136.03 -43.15 L 136.03 -43.15 L 155.93 -43.15 Q 156.18 -43.15 156.18 -42.84 L 156.18 -42.84 L 156.18 -35.9 Q 156.18 -35.65 155.93 -35.65 L 155.93 -35.65 L 143.22 -35.65 L 143.22 -25.98 L 155.93 -25.98 Q 156.18 -25.98 156.18 -25.73 L 156.18 -25.73 L 156.24 -18.72 Q 156.24 -18.48 155.99 -18.48 L 155.99 -18.48 L 143.22 -18.48 L 143.22 -7.63 L 155.99 -7.63 Q 156.24 -7.63 156.24 -7.32 L 156.24 -7.32 L 156.24 -0.25 Q 156.24 0 155.99 0 L 155.99 0 Z M 168.52 0 L 162.32 0 Q 161.82 0 161.82 -0.43 L 161.82 -0.43 L 161.76 -42.66 Q 161.76 -43.15 162.25 -43.15 L 162.25 -43.15 L 167.83 -43.15 L 178.31 -18.72 L 178 -42.66 Q 178 -43.15 178.56 -43.15 L 178.56 -43.15 L 184.7 -43.15 Q 185.07 -43.15 185.07 -42.66 L 185.07 -42.66 L 185.13 -0.37 Q 185.13 0 184.82 0 L 184.82 0 L 179.37 0 L 168.64 -22.82 L 169.07 -0.5 Q 169.07 0 168.52 0 L 168.52 0 Z M 201.87 0.62 L 201.87 0.62 Q 198.52 0.62 195.8 -1.05 Q 193.07 -2.73 191.42 -5.55 Q 189.78 -8.37 189.78 -11.84 L 189.78 -11.84 L 189.78 -31.5 Q 189.78 -34.84 191.42 -37.66 Q 193.07 -40.49 195.83 -42.16 Q 198.59 -43.83 201.87 -43.83 L 201.87 -43.83 Q 205.28 -43.83 208.04 -42.19 Q 210.8 -40.55 212.41 -37.76 Q 214.02 -34.97 214.02 -31.5 L 214.02 -31.5 L 214.02 -28.64 Q 214.02 -28.4 213.71 -28.4 L 213.71 -28.4 L 206.77 -28.4 Q 206.52 -28.4 206.52 -28.64 L 206.52 -28.64 L 206.52 -31 Q 206.52 -33.36 205.19 -34.91 Q 203.86 -36.46 201.87 -36.46 L 201.87 -36.46 Q 200.07 -36.46 198.68 -34.97 Q 197.28 -33.48 197.28 -31.5 L 197.28 -31.5 L 197.28 -11.84 Q 197.28 -9.8 198.65 -8.34 Q 200.01 -6.88 201.87 -6.88 L 201.87 -6.88 Q 203.86 -6.88 205.19 -8.31 Q 206.52 -9.73 206.52 -11.84 L 206.52 -11.84 L 206.52 -14.88 L 202.18 -14.88 Q 201.87 -14.88 201.87 -15.19 L 201.87 -15.19 L 201.87 -22.13 Q 201.87 -22.44 202.18 -22.44 L 202.18 -22.44 L 213.78 -22.44 Q 214.02 -22.44 214.02 -22.13 L 214.02 -22.13 L 214.02 -11.84 Q 214.02 -8.37 212.38 -5.55 Q 210.74 -2.73 208.01 -1.05 Q 205.28 0.62 201.87 0.62 Z M 239.01 0.62 L 239.01 0.62 Q 235.6 0.62 232.84 -1.08 Q 230.08 -2.79 228.47 -5.64 Q 226.86 -8.49 226.86 -12.03 L 226.86 -12.03 L 226.92 -31.37 Q 226.92 -34.78 228.5 -37.6 Q 230.08 -40.42 232.84 -42.13 Q 235.6 -43.83 239.01 -43.83 L 239.01 -43.83 Q 242.42 -43.83 245.15 -42.16 Q 247.88 -40.49 249.49 -37.66 Q 251.1 -34.84 251.1 -31.37 L 251.1 -31.37 L 251.1 -28.52 Q 251.1 -28.27 250.85 -28.27 L 250.85 -28.27 L 243.91 -28.27 Q 243.66 -28.27 243.66 -28.52 L 243.66 -28.52 L 243.66 -31.37 Q 243.66 -33.42 242.33 -34.91 Q 240.99 -36.39 239.01 -36.39 L 239.01 -36.39 Q 236.78 -36.39 235.6 -34.88 Q 234.42 -33.36 234.42 -31.37 L 234.42 -31.37 L 234.42 -12.03 Q 234.42 -9.73 235.75 -8.31 Q 237.09 -6.88 239.01 -6.88 L 239.01 -6.88 Q 240.99 -6.88 242.33 -8.46 Q 243.66 -10.04 243.66 -12.03 L 243.66 -12.03 L 243.66 -14.88 Q 243.66 -15.13 243.91 -15.13 L 243.91 -15.13 L 250.91 -15.13 Q 251.16 -15.13 251.16 -14.88 L 251.16 -14.88 L 251.16 -12.03 Q 251.16 -8.49 249.52 -5.64 Q 247.88 -2.79 245.15 -1.08 Q 242.42 0.62 239.01 0.62 Z M 275.96 0 L 255.94 0 Q 255.69 0 255.69 -0.31 L 255.69 -0.31 L 255.75 -42.84 Q 255.75 -43.15 256.06 -43.15 L 256.06 -43.15 L 262.94 -43.15 Q 263.25 -43.15 263.25 -42.84 L 263.25 -42.84 L 263.19 -7.63 L 275.96 -7.63 Q 276.27 -7.63 276.27 -7.32 L 276.27 -7.32 L 276.27 -0.31 Q 276.27 0 275.96 0 L 275.96 0 Z M 290.9 0.62 L 290.9 0.62 Q 287.56 0.62 284.8 -1.08 Q 282.04 -2.79 280.36 -5.61 Q 278.69 -8.43 278.69 -11.84 L 278.69 -11.84 L 278.75 -31.5 Q 278.75 -34.91 280.39 -37.7 Q 282.04 -40.49 284.83 -42.16 Q 287.62 -43.83 290.9 -43.83 L 290.9 -43.83 Q 294.25 -43.83 296.98 -42.16 Q 299.71 -40.49 301.35 -37.7 Q 302.99 -34.91 302.99 -31.5 L 302.99 -31.5 L 303.06 -11.84 Q 303.06 -8.43 301.41 -5.61 Q 299.77 -2.79 297.01 -1.08 Q 294.25 0.62 290.9 0.62 Z M 290.9 -6.88 L 290.9 -6.88 Q 292.76 -6.88 294.16 -8.4 Q 295.55 -9.92 295.55 -11.84 L 295.55 -11.84 L 295.49 -31.5 Q 295.49 -33.54 294.19 -34.97 Q 292.89 -36.39 290.9 -36.39 L 290.9 -36.39 Q 288.98 -36.39 287.62 -35 Q 286.25 -33.6 286.25 -31.5 L 286.25 -31.5 L 286.25 -11.84 Q 286.25 -9.8 287.62 -8.34 Q 288.98 -6.88 290.9 -6.88 Z M 319.55 0.62 L 319.55 0.62 Q 316.26 0.62 313.47 -1.08 Q 310.68 -2.79 309.04 -5.64 Q 307.4 -8.49 307.4 -11.9 L 307.4 -11.9 L 307.52 -42.9 Q 307.52 -43.15 307.77 -43.15 L 307.77 -43.15 L 314.71 -43.15 Q 314.96 -43.15 314.96 -42.9 L 314.96 -42.9 L 314.96 -11.9 Q 314.96 -9.8 316.29 -8.34 Q 317.63 -6.88 319.55 -6.88 L 319.55 -6.88 Q 321.53 -6.88 322.86 -8.34 Q 324.2 -9.8 324.2 -11.9 L 324.2 -11.9 L 324.2 -42.9 Q 324.2 -43.15 324.45 -43.15 L 324.45 -43.15 L 331.39 -43.15 Q 331.64 -43.15 331.64 -42.9 L 331.64 -42.9 L 331.76 -11.9 Q 331.76 -8.43 330.12 -5.58 Q 328.48 -2.73 325.72 -1.05 Q 322.96 0.62 319.55 0.62 Z M 348.07 -0.06 L 336.97 0 Q 336.66 0 336.66 -0.31 L 336.66 -0.31 L 336.78 -42.9 Q 336.78 -43.15 337.03 -43.15 L 337.03 -43.15 L 348.63 -43.21 Q 352.04 -43.28 354.86 -41.6 Q 357.68 -39.93 359.35 -37.11 Q 361.03 -34.29 361.03 -30.88 L 361.03 -30.88 L 361.03 -13.08 Q 361.03 -9.49 359.29 -6.54 Q 357.55 -3.6 354.64 -1.86 Q 351.73 -0.12 348.07 -0.06 L 348.07 -0.06 Z M 344.29 -35.71 L 344.22 -7.63 L 348.07 -7.63 Q 350.36 -7.63 351.94 -9.24 Q 353.52 -10.85 353.52 -13.08 L 353.52 -13.08 L 353.52 -30.94 Q 353.52 -32.92 352.07 -34.38 Q 350.61 -35.84 348.63 -35.77 L 348.63 -35.77 L 344.29 -35.71 Z M 382.35 0 L 375.35 0 Q 375.1 0 375.1 -0.31 L 375.1 -0.31 L 375.22 -42.9 Q 375.22 -43.15 375.47 -43.15 L 375.47 -43.15 L 388 -43.15 Q 391.34 -43.15 394.16 -41.51 Q 396.99 -39.87 398.66 -37.11 Q 400.33 -34.35 400.33 -30.88 L 400.33 -30.88 Q 400.33 -28.58 399.65 -26.75 Q 398.97 -24.92 398.04 -23.65 Q 397.11 -22.38 396.37 -21.76 L 396.37 -21.76 Q 399.71 -18.04 399.71 -13.02 L 399.71 -13.02 L 399.78 -0.31 Q 399.78 0 399.47 0 L 399.47 0 L 392.46 0 Q 392.21 0 392.21 -0.19 L 392.21 -0.19 L 392.21 -13.02 Q 392.21 -15.25 390.63 -16.89 Q 389.05 -18.54 386.76 -18.54 L 386.76 -18.54 L 382.66 -18.54 L 382.6 -0.31 Q 382.6 0 382.35 0 L 382.35 0 Z M 382.66 -35.71 L 382.66 -25.98 L 388 -25.98 Q 389.92 -25.98 391.41 -27.4 Q 392.89 -28.83 392.89 -30.88 L 392.89 -30.88 Q 392.89 -32.86 391.44 -34.29 Q 389.98 -35.71 388 -35.71 L 388 -35.71 L 382.66 -35.71 Z M 425.26 0 L 405.23 0 Q 404.98 0 404.98 -0.31 L 404.98 -0.31 L 405.05 -42.9 Q 405.05 -43.15 405.29 -43.15 L 405.29 -43.15 L 425.2 -43.15 Q 425.44 -43.15 425.44 -42.84 L 425.44 -42.84 L 425.44 -35.9 Q 425.44 -35.65 425.2 -35.65 L 425.2 -35.65 L 412.49 -35.65 L 412.49 -25.98 L 425.2 -25.98 Q 425.44 -25.98 425.44 -25.73 L 425.44 -25.73 L 425.51 -18.72 Q 425.51 -18.48 425.26 -18.48 L 425.26 -18.48 L 412.49 -18.48 L 412.49 -7.63 L 425.26 -7.63 Q 425.51 -7.63 425.51 -7.32 L 425.51 -7.32 L 425.51 -0.25 Q 425.51 0 425.26 0 L 425.26 0 Z M 438.28 0 L 431.33 0 Q 431.02 0 431.02 -0.31 L 431.02 -0.31 L 431.15 -42.9 Q 431.15 -43.15 431.4 -43.15 L 431.4 -43.15 L 443.3 -43.15 Q 449 -43.15 452.32 -39.68 Q 455.64 -36.21 455.64 -30.26 L 455.64 -30.26 Q 455.64 -25.85 453.9 -22.63 Q 452.17 -19.41 449.38 -17.67 Q 446.59 -15.93 443.3 -15.93 L 443.3 -15.93 L 438.59 -15.93 L 438.59 -0.31 Q 438.59 0 438.28 0 L 438.28 0 Z M 438.59 -35.71 L 438.59 -23.44 L 443.3 -23.44 Q 445.28 -23.44 446.74 -25.33 Q 448.2 -27.22 448.2 -30.26 L 448.2 -30.26 Q 448.2 -32.67 446.9 -34.22 Q 445.59 -35.77 443.3 -35.77 L 443.3 -35.77 L 438.59 -35.71 Z M 470.7 0.62 L 470.7 0.62 Q 467.36 0.62 464.6 -1.08 Q 461.84 -2.79 460.16 -5.61 Q 458.49 -8.43 458.49 -11.84 L 458.49 -11.84 L 458.55 -31.5 Q 458.55 -34.91 460.19 -37.7 Q 461.84 -40.49 464.63 -42.16 Q 467.42 -43.83 470.7 -43.83 L 470.7 -43.83 Q 474.05 -43.83 476.78 -42.16 Q 479.51 -40.49 481.15 -37.7 Q 482.79 -34.91 482.79 -31.5 L 482.79 -31.5 L 482.86 -11.84 Q 482.86 -8.43 481.21 -5.61 Q 479.57 -2.79 476.81 -1.08 Q 474.05 0.62 470.7 0.62 Z M 470.7 -6.88 L 470.7 -6.88 Q 472.56 -6.88 473.96 -8.4 Q 475.35 -9.92 475.35 -11.84 L 475.35 -11.84 L 475.29 -31.5 Q 475.29 -33.54 473.99 -34.97 Q 472.69 -36.39 470.7 -36.39 L 470.7 -36.39 Q 468.78 -36.39 467.42 -35 Q 466.05 -33.6 466.05 -31.5 L 466.05 -31.5 L 466.05 -11.84 Q 466.05 -9.8 467.42 -8.34 Q 468.78 -6.88 470.7 -6.88 Z M 498.11 0.62 L 498.11 0.62 Q 494.76 0.62 492 -1.08 Q 489.24 -2.79 487.6 -5.61 Q 485.96 -8.43 485.96 -11.84 L 485.96 -11.84 L 485.96 -14.69 Q 485.96 -15 486.27 -15 L 486.27 -15 L 493.21 -15 Q 493.46 -15 493.46 -14.69 L 493.46 -14.69 L 493.46 -11.84 Q 493.46 -9.8 494.82 -8.34 Q 496.19 -6.88 498.11 -6.88 L 498.11 -6.88 Q 500.03 -6.88 501.39 -8.37 Q 502.76 -9.86 502.76 -11.84 L 502.76 -11.84 Q 502.76 -14.14 499.78 -15.81 L 499.78 -15.81 Q 498.79 -16.37 496.68 -17.55 Q 494.57 -18.72 492.71 -19.78 L 492.71 -19.78 Q 489.3 -21.76 487.66 -24.77 Q 486.02 -27.78 486.02 -31.56 L 486.02 -31.56 Q 486.02 -35.03 487.69 -37.79 Q 489.37 -40.55 492.12 -42.16 Q 494.88 -43.77 498.11 -43.77 L 498.11 -43.77 Q 501.39 -43.77 504.15 -42.13 Q 506.91 -40.49 508.55 -37.73 Q 510.2 -34.97 510.2 -31.56 L 510.2 -31.56 L 510.2 -26.47 Q 510.2 -26.23 509.95 -26.23 L 509.95 -26.23 L 503.01 -26.23 Q 502.76 -26.23 502.76 -26.47 L 502.76 -26.47 L 502.7 -31.56 Q 502.7 -33.73 501.33 -35.09 Q 499.97 -36.46 498.11 -36.46 L 498.11 -36.46 Q 496.19 -36.46 494.82 -35 Q 493.46 -33.54 493.46 -31.56 L 493.46 -31.56 Q 493.46 -29.51 494.33 -28.15 Q 495.19 -26.78 497.49 -25.54 L 497.49 -25.54 Q 497.8 -25.36 498.7 -24.89 Q 499.6 -24.43 500.65 -23.84 Q 501.7 -23.25 502.54 -22.82 Q 503.38 -22.38 503.56 -22.26 L 503.56 -22.26 Q 506.66 -20.52 508.46 -18.01 Q 510.26 -15.5 510.26 -11.84 L 510.26 -11.84 Q 510.26 -8.31 508.62 -5.49 Q 506.97 -2.67 504.21 -1.02 Q 501.46 0.62 498.11 0.62 Z M 521.92 0 L 514.91 0 Q 514.6 0 514.6 -0.31 L 514.6 -0.31 L 514.66 -42.9 Q 514.66 -43.15 514.91 -43.15 L 514.91 -43.15 L 521.85 -43.15 Q 522.1 -43.15 522.1 -42.9 L 522.1 -42.9 L 522.16 -0.31 Q 522.16 0 521.92 0 L 521.92 0 Z M 540.83 0 L 533.82 0 Q 533.57 0 533.57 -0.31 L 533.57 -0.31 L 533.57 -35.65 L 525.51 -35.65 Q 525.2 -35.65 525.2 -35.96 L 525.2 -35.96 L 525.26 -42.9 Q 525.26 -43.15 525.51 -43.15 L 525.51 -43.15 L 549.07 -43.15 Q 549.38 -43.15 549.38 -42.9 L 549.38 -42.9 L 549.38 -35.96 Q 549.38 -35.65 549.13 -35.65 L 549.13 -35.65 L 541.01 -35.65 L 541.07 -0.31 Q 541.07 0 540.83 0 L 540.83 0 Z M 563.27 0.62 L 563.27 0.62 Q 559.92 0.62 557.16 -1.08 Q 554.4 -2.79 552.73 -5.61 Q 551.06 -8.43 551.06 -11.84 L 551.06 -11.84 L 551.12 -31.5 Q 551.12 -34.91 552.76 -37.7 Q 554.4 -40.49 557.19 -42.16 Q 559.98 -43.83 563.27 -43.83 L 563.27 -43.83 Q 566.62 -43.83 569.35 -42.16 Q 572.07 -40.49 573.72 -37.7 Q 575.36 -34.91 575.36 -31.5 L 575.36 -31.5 L 575.42 -11.84 Q 575.42 -8.43 573.78 -5.61 Q 572.14 -2.79 569.38 -1.08 Q 566.62 0.62 563.27 0.62 Z M 563.27 -6.88 L 563.27 -6.88 Q 565.13 -6.88 566.52 -8.4 Q 567.92 -9.92 567.92 -11.84 L 567.92 -11.84 L 567.86 -31.5 Q 567.86 -33.54 566.56 -34.97 Q 565.25 -36.39 563.27 -36.39 L 563.27 -36.39 Q 561.35 -36.39 559.98 -35 Q 558.62 -33.6 558.62 -31.5 L 558.62 -31.5 L 558.62 -11.84 Q 558.62 -9.8 559.98 -8.34 Q 561.35 -6.88 563.27 -6.88 Z M 587.39 0 L 580.38 0 Q 580.13 0 580.13 -0.31 L 580.13 -0.31 L 580.26 -42.9 Q 580.26 -43.15 580.51 -43.15 L 580.51 -43.15 L 593.03 -43.15 Q 596.38 -43.15 599.2 -41.51 Q 602.02 -39.87 603.69 -37.11 Q 605.37 -34.35 605.37 -30.88 L 605.37 -30.88 Q 605.37 -28.58 604.69 -26.75 Q 604 -24.92 603.07 -23.65 Q 602.14 -22.38 601.4 -21.76 L 601.4 -21.76 Q 604.75 -18.04 604.75 -13.02 L 604.75 -13.02 L 604.81 -0.31 Q 604.81 0 604.5 0 L 604.5 0 L 597.49 0 Q 597.25 0 597.25 -0.19 L 597.25 -0.19 L 597.25 -13.02 Q 597.25 -15.25 595.66 -16.89 Q 594.08 -18.54 591.79 -18.54 L 591.79 -18.54 L 587.7 -18.54 L 587.64 -0.31 Q 587.64 0 587.39 0 L 587.39 0 Z M 587.7 -35.71 L 587.7 -25.98 L 593.03 -25.98 Q 594.95 -25.98 596.44 -27.4 Q 597.93 -28.83 597.93 -30.88 L 597.93 -30.88 Q 597.93 -32.86 596.47 -34.29 Q 595.01 -35.71 593.03 -35.71 L 593.03 -35.71 L 587.7 -35.71 Z M 621.05 0 L 613.92 0 Q 613.74 0 613.74 -0.25 L 613.74 -0.25 L 613.8 -17.86 L 605.49 -42.9 Q 605.43 -43.15 605.68 -43.15 L 605.68 -43.15 L 612.56 -43.15 Q 612.87 -43.15 612.93 -42.9 L 612.93 -42.9 L 617.52 -26.23 L 622.17 -42.9 Q 622.23 -43.15 622.48 -43.15 L 622.48 -43.15 L 629.42 -43.15 Q 629.67 -43.15 629.61 -42.9 L 629.61 -42.9 L 621.24 -18.1 L 621.3 -0.25 Q 621.3 0 621.05 0 L 621.05 0 Z" stroke-linecap="round" />
</g>
<g transform="matrix(1.9692780337941629 0 0 1.9692780337941629 657.4907578872741 834.9520601262325)" id="tagline-c381f97f-a93d-4d76-bd5a-ec7729fa9015-logo-path"  >
<path style="stroke: none; stroke-width: 0; stroke-dasharray: none; stroke-linecap: butt; stroke-dashoffset: 0; stroke-linejoin: miter; stroke-miterlimit: 4; fill: rgb(94,69,35); fill-rule: nonzero; opacity: 1;"  paint-order="stroke"  transform=" translate(-227.01999999999998, 15.57)" d="M 12.04 -3.06 Q 10.61 -3.06 9.62 -5.3 Q 8.64 -7.55 8.64 -10.54 L 8.64 -10.54 L 8.7 -11.76 Q 8.7 -14.21 9.04 -15.84 Q 9.38 -17.48 9.45 -17.88 L 9.45 -17.88 Q 9.59 -18.22 9.72 -19.07 Q 9.86 -19.92 10.27 -21.49 L 10.27 -21.49 Q 10.81 -23.87 11.36 -24.41 L 11.36 -24.41 Q 11.9 -24.96 12.65 -24.96 L 12.65 -24.96 Q 13.12 -24.96 13.53 -24.72 Q 13.94 -24.48 14.21 -24.07 L 14.21 -24.07 Q 14.62 -23.66 14.62 -22.1 L 14.62 -22.1 Q 14.62 -20.94 14.42 -19.86 Q 14.21 -18.77 13.87 -18.29 L 13.87 -18.29 Q 13.67 -17.88 13.26 -14.35 L 13.26 -14.35 Q 12.99 -11.76 12.85 -11.02 L 12.85 -11.02 Q 12.78 -10.74 12.78 -10.2 L 12.78 -10.2 Q 12.78 -8.64 13.74 -8.64 L 13.74 -8.64 Q 15.3 -8.64 18.16 -12.78 L 18.16 -12.78 Q 20.06 -15.5 20.84 -17.03 Q 21.62 -18.56 22.44 -20.94 L 22.44 -20.94 Q 22.78 -21.96 23.09 -22.71 Q 23.39 -23.46 23.66 -23.66 L 23.66 -23.66 Q 24 -23.94 24.62 -23.94 L 24.62 -23.94 Q 25.3 -23.94 26.25 -23.32 L 26.25 -23.32 Q 27.06 -22.51 27.06 -21.42 L 27.06 -21.42 Q 27.06 -20.26 26.25 -18.63 L 26.25 -18.63 Q 25.43 -17 24.75 -14.11 Q 24.07 -11.22 24.07 -9.59 L 24.07 -9.59 Q 24.07 -8.36 24.38 -8.06 Q 24.68 -7.75 25.36 -7.75 L 25.36 -7.75 Q 27.27 -7.75 29.92 -10.47 L 29.92 -10.47 Q 31.14 -11.7 33.15 -14.79 Q 35.16 -17.88 35.16 -18.43 L 35.16 -18.43 Q 35.16 -18.84 35.77 -19.58 L 35.77 -19.58 Q 36.11 -20.06 36.41 -20.4 Q 36.72 -20.74 37.33 -21.08 L 37.33 -21.08 L 37.88 -21.22 Q 38.42 -21.22 39.17 -20.47 L 39.17 -20.47 Q 39.44 -20.2 39.51 -19.62 Q 39.58 -19.04 39.58 -18.29 L 39.58 -18.29 Q 39.24 -17.07 38.42 -15.13 Q 37.6 -13.19 37.13 -12.65 L 37.13 -12.65 Q 35.84 -11.63 34.95 -10.13 L 34.95 -10.13 Q 33.32 -8.16 32.4 -7.38 Q 31.48 -6.6 31.21 -6.32 L 31.21 -6.32 Q 29.85 -4.96 28.25 -4.22 Q 26.66 -3.47 25.23 -3.47 L 25.23 -3.47 Q 23.8 -3.47 22.92 -4.15 L 22.92 -4.15 Q 20.81 -5.24 20.81 -7.82 L 20.81 -7.82 Q 20.81 -8.3 20.67 -8.7 Q 20.54 -9.11 20.47 -9.25 L 20.47 -9.25 Q 19.45 -9.25 18.84 -8.16 L 18.84 -8.16 Q 17.88 -6.46 15.57 -4.76 Q 13.26 -3.06 12.04 -3.06 L 12.04 -3.06 Z M 47.19 -3.06 Q 45.76 -3.06 44.78 -5.3 Q 43.79 -7.55 43.79 -10.54 L 43.79 -10.54 L 43.86 -11.76 Q 43.86 -14.21 44.2 -15.84 Q 44.54 -17.48 44.61 -17.88 L 44.61 -17.88 Q 44.74 -18.22 44.88 -19.07 Q 45.02 -19.92 45.42 -21.49 L 45.42 -21.49 Q 45.97 -23.87 46.51 -24.41 L 46.51 -24.41 Q 47.06 -24.96 47.8 -24.96 L 47.8 -24.96 Q 48.28 -24.96 48.69 -24.72 Q 49.1 -24.48 49.37 -24.07 L 49.37 -24.07 Q 49.78 -23.66 49.78 -22.1 L 49.78 -22.1 Q 49.78 -20.94 49.57 -19.86 Q 49.37 -18.77 49.03 -18.29 L 49.03 -18.29 Q 48.82 -17.88 48.42 -14.35 L 48.42 -14.35 Q 48.14 -11.76 48.01 -11.02 L 48.01 -11.02 Q 47.94 -10.74 47.94 -10.2 L 47.94 -10.2 Q 47.94 -8.64 48.89 -8.64 L 48.89 -8.64 Q 50.46 -8.64 53.31 -12.78 L 53.31 -12.78 Q 55.22 -15.5 56 -17.03 Q 56.78 -18.56 57.6 -20.94 L 57.6 -20.94 Q 57.94 -21.96 58.24 -22.71 Q 58.55 -23.46 58.82 -23.66 L 58.82 -23.66 Q 59.16 -23.94 59.77 -23.94 L 59.77 -23.94 Q 60.45 -23.94 61.4 -23.32 L 61.4 -23.32 Q 62.22 -22.51 62.22 -21.42 L 62.22 -21.42 Q 62.22 -20.26 61.4 -18.63 L 61.4 -18.63 Q 60.59 -17 59.91 -14.11 Q 59.23 -11.22 59.23 -9.59 L 59.23 -9.59 Q 59.23 -8.36 59.53 -8.06 Q 59.84 -7.75 60.52 -7.75 L 60.52 -7.75 Q 62.42 -7.75 65.08 -10.47 L 65.08 -10.47 Q 66.3 -11.7 68.31 -14.79 Q 70.31 -17.88 70.31 -18.43 L 70.31 -18.43 Q 70.31 -18.84 70.92 -19.58 L 70.92 -19.58 Q 71.26 -20.06 71.57 -20.4 Q 71.88 -20.74 72.49 -21.08 L 72.49 -21.08 L 73.03 -21.22 Q 73.58 -21.22 74.32 -20.47 L 74.32 -20.47 Q 74.6 -20.2 74.66 -19.62 Q 74.73 -19.04 74.73 -18.29 L 74.73 -18.29 Q 74.39 -17.07 73.58 -15.13 Q 72.76 -13.19 72.28 -12.65 L 72.28 -12.65 Q 70.99 -11.63 70.11 -10.13 L 70.11 -10.13 Q 68.48 -8.16 67.56 -7.38 Q 66.64 -6.6 66.37 -6.32 L 66.37 -6.32 Q 65.01 -4.96 63.41 -4.22 Q 61.81 -3.47 60.38 -3.47 L 60.38 -3.47 Q 58.96 -3.47 58.07 -4.15 L 58.07 -4.15 Q 55.96 -5.24 55.96 -7.82 L 55.96 -7.82 Q 55.96 -8.3 55.83 -8.7 Q 55.69 -9.11 55.62 -9.25 L 55.62 -9.25 Q 54.6 -9.25 53.99 -8.16 L 53.99 -8.16 Q 53.04 -6.46 50.73 -4.76 Q 48.42 -3.06 47.19 -3.06 L 47.19 -3.06 Z M 82.35 -3.06 Q 80.92 -3.06 79.93 -5.3 Q 78.95 -7.55 78.95 -10.54 L 78.95 -10.54 L 79.02 -11.76 Q 79.02 -14.21 79.36 -15.84 Q 79.7 -17.48 79.76 -17.88 L 79.76 -17.88 Q 79.9 -18.22 80.04 -19.07 Q 80.17 -19.92 80.58 -21.49 L 80.58 -21.49 Q 81.12 -23.87 81.67 -24.41 L 81.67 -24.41 Q 82.21 -24.96 82.96 -24.96 L 82.96 -24.96 Q 83.44 -24.96 83.84 -24.72 Q 84.25 -24.48 84.52 -24.07 L 84.52 -24.07 Q 84.93 -23.66 84.93 -22.1 L 84.93 -22.1 Q 84.93 -20.94 84.73 -19.86 Q 84.52 -18.77 84.18 -18.29 L 84.18 -18.29 Q 83.98 -17.88 83.57 -14.35 L 83.57 -14.35 Q 83.3 -11.76 83.16 -11.02 L 83.16 -11.02 Q 83.1 -10.74 83.1 -10.2 L 83.1 -10.2 Q 83.1 -8.64 84.05 -8.64 L 84.05 -8.64 Q 85.61 -8.64 88.47 -12.78 L 88.47 -12.78 Q 90.37 -15.5 91.15 -17.03 Q 91.94 -18.56 92.75 -20.94 L 92.75 -20.94 Q 93.09 -21.96 93.4 -22.71 Q 93.7 -23.46 93.98 -23.66 L 93.98 -23.66 Q 94.32 -23.94 94.93 -23.94 L 94.93 -23.94 Q 95.61 -23.94 96.56 -23.32 L 96.56 -23.32 Q 97.38 -22.51 97.38 -21.42 L 97.38 -21.42 Q 97.38 -20.26 96.56 -18.63 L 96.56 -18.63 Q 95.74 -17 95.06 -14.11 Q 94.38 -11.22 94.38 -9.59 L 94.38 -9.59 Q 94.38 -8.36 94.69 -8.06 Q 95 -7.75 95.68 -7.75 L 95.68 -7.75 Q 97.58 -7.75 100.23 -10.47 L 100.23 -10.47 Q 101.46 -11.7 103.46 -14.79 Q 105.47 -17.88 105.47 -18.43 L 105.47 -18.43 Q 105.47 -18.84 106.08 -19.58 L 106.08 -19.58 Q 106.42 -20.06 106.73 -20.4 Q 107.03 -20.74 107.64 -21.08 L 107.64 -21.08 L 108.19 -21.22 Q 108.73 -21.22 109.48 -20.47 L 109.48 -20.47 Q 109.75 -20.2 109.82 -19.62 Q 109.89 -19.04 109.89 -18.29 L 109.89 -18.29 Q 109.55 -17.07 108.73 -15.13 Q 107.92 -13.19 107.44 -12.65 L 107.44 -12.65 Q 106.15 -11.63 105.26 -10.13 L 105.26 -10.13 Q 103.63 -8.16 102.71 -7.38 Q 101.8 -6.6 101.52 -6.32 L 101.52 -6.32 Q 100.16 -4.96 98.57 -4.22 Q 96.97 -3.47 95.54 -3.47 L 95.54 -3.47 Q 94.11 -3.47 93.23 -4.15 L 93.23 -4.15 Q 91.12 -5.24 91.12 -7.82 L 91.12 -7.82 Q 91.12 -8.3 90.98 -8.7 Q 90.85 -9.11 90.78 -9.25 L 90.78 -9.25 Q 89.76 -9.25 89.15 -8.16 L 89.15 -8.16 Q 88.2 -6.46 85.88 -4.76 Q 83.57 -3.06 82.35 -3.06 L 82.35 -3.06 Z M 115.87 -3.54 Q 114.58 -3.06 113.9 -3.06 L 113.9 -3.06 Q 112.95 -3.06 111.86 -3.88 L 111.86 -3.88 Q 110.91 -4.83 110.91 -5.78 L 110.91 -5.78 Q 110.91 -7.28 113.22 -8.84 L 113.22 -8.84 Q 114.58 -9.66 115.19 -9.66 L 115.19 -9.66 Q 115.53 -9.66 116.82 -9.18 L 116.82 -9.18 Q 118.66 -8.09 118.66 -6.66 L 118.66 -6.66 Q 118.66 -5.85 117.95 -5.03 Q 117.23 -4.22 115.87 -3.54 L 115.87 -3.54 Z M 126.21 -2.45 Q 126 -2.86 125.56 -3.3 Q 125.12 -3.74 125.12 -3.88 L 125.12 -3.88 Q 125.12 -4.62 124.78 -5.03 L 124.78 -5.03 Q 124.64 -5.17 124.64 -5.64 L 124.64 -5.64 Q 124.64 -6.73 125.7 -9.35 Q 126.75 -11.97 128.45 -15.03 L 128.45 -15.03 Q 128.86 -15.44 129.51 -16.46 Q 130.15 -17.48 130.36 -17.61 L 130.36 -17.61 Q 130.36 -17.88 130.56 -18.12 Q 130.76 -18.36 131.04 -18.36 L 131.04 -18.36 L 131.04 -18.77 Q 131.04 -19.38 133.28 -21.73 Q 135.52 -24.07 136.95 -24.96 L 136.95 -24.96 Q 138.65 -26.11 140.42 -26.11 L 140.42 -26.11 Q 141.64 -26.11 142.53 -25.43 L 142.53 -25.43 Q 142.87 -25.02 145.66 -22.51 L 145.66 -22.51 L 148.17 -20.26 L 146.95 -16.86 Q 146.34 -15.03 146.34 -13.53 L 146.34 -13.53 Q 146.34 -10.95 147.83 -8.57 L 147.83 -8.57 Q 148.17 -7.82 149.19 -7.14 Q 150.21 -6.46 151.23 -6.32 L 151.23 -6.32 Q 152.73 -6.05 152.73 -4.83 L 152.73 -4.83 Q 152.73 -3.47 151.5 -3.2 L 151.5 -3.2 Q 151.23 -3.13 150.69 -3.13 L 150.69 -3.13 Q 146.68 -3.13 143.75 -8.77 L 143.75 -8.77 Q 143.48 -9.18 143.04 -10.27 Q 142.6 -11.36 142.53 -11.76 L 142.53 -11.76 Q 142.12 -11.22 141.51 -10.47 Q 140.9 -9.72 140.35 -9.18 L 140.35 -9.18 Q 132.94 -1.77 128.66 -1.77 L 128.66 -1.77 Q 127.3 -1.77 126.21 -2.45 L 126.21 -2.45 Z M 128.66 -6.26 Q 128.66 -5.92 129.37 -6.05 Q 130.08 -6.19 131.14 -6.73 Q 132.19 -7.28 133.28 -8.16 L 133.28 -8.16 Q 139.13 -13.19 141.71 -16.93 L 141.71 -16.93 L 143.21 -19.38 Q 142.53 -20.81 141.78 -21.45 Q 141.03 -22.1 140.42 -22.1 L 140.42 -22.1 Q 138.99 -22.1 135.93 -18.53 Q 132.87 -14.96 130.36 -10.13 L 130.36 -10.13 Q 129.74 -8.98 129.27 -7.79 Q 128.79 -6.6 128.66 -6.26 L 128.66 -6.26 Z M 174.9 -20.54 Q 175.3 -19.72 175.3 -18.97 L 175.3 -18.97 Q 175.3 -17.95 174.49 -16.93 L 174.49 -16.93 Q 174.28 -16.59 173.74 -15.88 Q 173.2 -15.16 172.79 -14.42 Q 172.38 -13.67 172.18 -12.72 L 172.18 -12.72 Q 171.9 -11.15 170.54 -6.05 L 170.54 -6.05 L 169.8 -3.4 L 168.71 0.82 Q 165.65 11.36 162.59 12.99 L 162.59 12.99 Q 161.7 13.33 160.89 13.33 L 160.89 13.33 Q 159.39 13.33 157.79 12.34 Q 156.2 11.36 155.04 9.66 L 155.04 9.66 Q 154.36 8.7 153.71 6.63 Q 153.07 4.56 153.48 4.28 L 153.48 4.28 Q 153.61 4.15 153.95 4.15 L 153.95 4.15 Q 154.43 4.15 154.97 4.45 Q 155.52 4.76 155.65 5.17 L 155.65 5.17 Q 155.92 5.92 156.81 7.14 Q 157.69 8.36 158.1 8.43 L 158.1 8.43 Q 159.19 8.98 159.94 8.98 L 159.94 8.98 Q 160.55 8.98 161.09 8.57 L 161.09 8.57 Q 162.18 7.68 162.96 6.29 Q 163.74 4.9 164.7 1.84 L 164.7 1.84 L 165.24 -0.14 Q 166.87 -6.12 167.62 -7.89 L 167.62 -7.89 Q 167.96 -8.98 168.3 -9.59 L 168.3 -9.59 L 167.08 -8.5 Q 166.26 -7.75 165.38 -7.07 Q 164.49 -6.39 163.54 -5.98 L 163.54 -5.98 Q 163.06 -5.37 161.16 -5.37 L 161.16 -5.37 Q 159.8 -5.37 158.44 -5.78 L 158.44 -5.78 Q 157.01 -6.53 156.67 -6.94 Q 156.33 -7.34 155.72 -8.84 L 155.72 -8.84 Q 155.45 -9.38 155.45 -10.54 L 155.45 -10.54 Q 155.45 -13.46 156.81 -16.8 L 156.81 -16.8 Q 158.1 -19.45 160.89 -22.44 Q 163.68 -25.43 165.72 -26.04 L 165.72 -26.04 Q 166.53 -26.45 167.21 -26.45 L 167.21 -26.45 Q 167.96 -26.45 168.78 -26.18 L 168.78 -26.18 Q 169.86 -26.04 170.48 -25.7 Q 171.09 -25.36 172.52 -24.14 L 172.52 -24.14 Q 174.15 -22.51 174.9 -20.54 L 174.9 -20.54 Z M 167.42 -13.8 Q 168.57 -15.37 169.05 -17.17 Q 169.52 -18.97 169.39 -20.74 L 169.39 -20.74 Q 169.32 -21.69 169.12 -22.07 Q 168.91 -22.44 168.37 -22.44 L 168.37 -22.44 Q 167.08 -22.44 165.38 -21.22 Q 163.68 -19.99 162.11 -18.02 L 162.11 -18.02 Q 161.09 -16.66 160.41 -14.76 L 160.41 -14.76 Q 159.6 -12.44 159.6 -10.47 L 159.6 -10.47 Q 159.6 -8.98 160.14 -8.77 L 160.14 -8.77 Q 162.25 -8.84 163.98 -10 Q 165.72 -11.15 167.42 -13.8 L 167.42 -13.8 Z M 180.88 -2.38 Q 180.34 -2.79 180.13 -3.13 Q 179.93 -3.47 179.93 -4.15 L 179.93 -4.15 Q 179.93 -4.76 180 -5.17 L 180 -5.17 Q 180.2 -7.48 181.02 -10.54 L 181.02 -10.54 L 181.36 -11.9 Q 181.56 -13.6 183.74 -19.04 Q 185.91 -24.48 187.27 -26.45 L 187.27 -26.45 Q 187.82 -26.79 188.43 -26.79 L 188.43 -26.79 Q 189.31 -26.79 189.92 -26.18 L 189.92 -26.18 Q 190.33 -25.91 190.33 -25.16 L 190.33 -25.16 Q 190.33 -24.48 189.82 -23.15 Q 189.31 -21.83 188.09 -19.24 L 188.09 -19.24 Q 187.82 -18.7 187.17 -17.2 Q 186.52 -15.71 186.52 -15.44 L 186.52 -15.44 Q 186.52 -15.3 186.59 -15.3 L 186.59 -15.3 Q 186.73 -15.3 186.86 -15.4 Q 187 -15.5 187.14 -15.57 L 187.14 -15.57 Q 187.88 -16.86 190.77 -19.11 Q 193.66 -21.35 194.75 -21.9 L 194.75 -21.9 Q 195.23 -22.17 195.98 -22.44 Q 196.72 -22.71 197 -22.85 L 197 -22.85 Q 198.08 -23.39 199.58 -23.39 L 199.58 -23.39 Q 200.53 -23.39 201.25 -23.09 Q 201.96 -22.78 202.23 -22.17 L 202.23 -22.17 Q 202.3 -21.69 202.61 -21.42 Q 202.91 -21.15 203.05 -21.08 L 203.05 -21.08 Q 203.25 -21.08 203.32 -20.91 Q 203.39 -20.74 203.39 -20.67 L 203.39 -20.67 Q 203.39 -20.2 202.84 -20.09 Q 202.3 -19.99 200.87 -19.92 L 200.87 -19.92 Q 200.12 -19.86 199.31 -19.58 Q 198.49 -19.31 197.68 -18.9 L 197.68 -18.9 Q 193.87 -16.73 192 -15.5 Q 190.13 -14.28 188.22 -12.17 L 188.22 -12.17 Q 187.48 -11.36 186.25 -9.25 L 186.25 -9.25 Q 185.78 -8.77 185.27 -6.77 Q 184.76 -4.76 184.76 -4.28 L 184.76 -4.28 Q 184.69 -4.08 184.48 -3.5 Q 184.28 -2.92 183.87 -2.38 L 183.87 -2.38 Q 183.06 -1.29 182.51 -1.29 L 182.51 -1.29 Q 181.9 -1.29 180.88 -2.38 L 180.88 -2.38 Z M 211.75 -29.78 Q 211.28 -30.26 210.94 -31.42 Q 210.6 -32.57 210.94 -32.57 L 210.94 -32.57 Q 211.48 -32.64 212.19 -33.76 Q 212.91 -34.88 212.84 -35.63 L 212.84 -35.63 Q 212.84 -35.9 213.04 -36.14 Q 213.25 -36.38 213.52 -36.45 L 213.52 -36.45 Q 214.06 -36.79 214.47 -36.79 L 214.47 -36.79 Q 215.63 -36.79 216.58 -35.16 L 216.58 -35.16 Q 216.99 -34.27 216.99 -33.59 L 216.99 -33.59 Q 216.99 -32.98 216.65 -32.33 Q 216.31 -31.69 215.42 -30.67 L 215.42 -30.67 Q 214.27 -29.1 213.25 -29.1 L 213.25 -29.1 Q 212.57 -29.1 211.75 -29.78 L 211.75 -29.78 Z M 205.16 -2.18 Q 204.2 -3.13 204.2 -4.9 L 204.2 -4.9 Q 204.2 -5.85 204.54 -6.53 L 204.54 -6.53 Q 204.54 -6.87 204.68 -7.34 Q 204.82 -7.82 204.82 -7.96 L 204.82 -7.96 Q 204.75 -8.36 205.36 -10.2 L 205.36 -10.2 Q 206.58 -12.92 208.62 -19.79 L 208.62 -19.79 Q 208.62 -20.13 208.9 -20.37 Q 209.17 -20.6 209.71 -20.67 L 209.71 -20.67 Q 210.26 -20.81 210.46 -20.81 L 210.46 -20.81 Q 210.87 -20.81 211.17 -20.5 Q 211.48 -20.2 212.02 -19.38 L 212.02 -19.38 Q 212.43 -18.97 212.43 -18.16 L 212.43 -18.16 Q 212.43 -16.86 211.55 -15.03 L 211.55 -15.03 Q 210.66 -13.06 210.39 -11.63 L 210.39 -11.63 Q 209.58 -9.79 209.1 -8.23 L 209.1 -8.23 Q 208.96 -7.82 208.69 -6.6 Q 208.42 -5.37 207.94 -4.62 L 207.94 -4.62 Q 207.54 -2.72 207.2 -1.97 Q 206.86 -1.22 206.45 -1.22 L 206.45 -1.22 Q 205.97 -1.22 205.16 -2.18 L 205.16 -2.18 Z M 224.54 -0.75 Q 223.58 -0.61 223.11 -0.61 L 223.11 -0.61 Q 220.59 -0.61 218.96 -2.18 Q 217.33 -3.74 217.33 -6.53 L 217.33 -6.53 Q 217.06 -9.52 218.65 -13.94 Q 220.25 -18.36 222.7 -21.35 L 222.7 -21.35 Q 224.4 -23.32 225.62 -24.55 Q 226.85 -25.77 227.87 -26.18 L 227.87 -26.18 Q 229.3 -26.79 231.06 -26.79 L 231.06 -26.79 Q 232.29 -26.52 233.48 -25.77 Q 234.67 -25.02 234.67 -24.28 L 234.67 -24.28 L 235.01 -23.94 Q 235.42 -23.94 235.76 -22.95 Q 236.1 -21.96 236.1 -20.81 L 236.1 -20.81 Q 236.1 -19.86 235.76 -19.18 L 235.76 -19.18 Q 235.48 -17.88 234.84 -16.93 Q 234.19 -15.98 233.58 -15.98 L 233.58 -15.98 Q 232.83 -15.98 232.83 -15.57 L 232.83 -15.57 Q 232.83 -15.3 232.56 -15.3 L 232.56 -15.3 Q 232.22 -15.3 231.74 -15.71 Q 231.27 -16.12 231.06 -16.66 L 231.06 -16.66 Q 231.06 -16.86 231.34 -17.82 Q 231.61 -18.77 231.88 -19.92 L 231.88 -19.92 Q 232.08 -20.74 232.08 -21.35 L 232.08 -21.35 Q 232.08 -22.71 231.06 -22.71 L 231.06 -22.71 Q 230.52 -22.71 229.98 -22.44 L 229.98 -22.44 Q 227.26 -20.94 225.15 -17.68 Q 223.04 -14.42 221.61 -8.7 L 221.61 -8.7 Q 221.27 -7.21 221.27 -6.32 L 221.27 -6.32 Q 221.27 -5.64 221.37 -5.24 Q 221.48 -4.83 221.61 -4.76 L 221.61 -4.76 Q 221.95 -4.62 223.04 -4.62 L 223.04 -4.62 Q 225.56 -4.62 226.58 -5.24 L 226.58 -5.24 Q 228.75 -6.39 231.4 -8.36 L 231.4 -8.36 Q 231.68 -8.57 232.22 -9.08 Q 232.76 -9.59 233.24 -9.79 L 233.24 -9.79 Q 233.72 -10.54 234.12 -10.71 Q 234.53 -10.88 235.42 -10.88 L 235.42 -10.88 Q 236.3 -10.61 236.84 -10.17 Q 237.39 -9.72 236.84 -9.45 L 236.84 -9.45 Q 236.64 -9.45 236.57 -9.32 Q 236.5 -9.18 236.5 -9.11 L 236.5 -9.11 Q 236.64 -8.77 235.42 -7.41 Q 234.19 -6.05 232.7 -4.86 Q 231.2 -3.67 230.66 -3.67 L 230.66 -3.67 Q 230.38 -3.67 230.18 -3.6 Q 229.98 -3.54 229.98 -3.26 L 229.98 -3.26 Q 229.98 -2.99 227.9 -2.01 Q 225.83 -1.02 224.54 -0.75 L 224.54 -0.75 Z M 253.23 -2.38 Q 251.53 -0.88 249.15 -0.88 L 249.15 -0.88 Q 247.45 -0.88 245.92 -1.7 Q 244.39 -2.52 243.37 -3.94 L 243.37 -3.94 Q 242.49 -5.03 242.08 -6.39 Q 241.67 -7.75 241.67 -9.72 L 241.67 -9.72 Q 241.67 -10.4 241.81 -12.44 L 241.81 -12.44 Q 242.01 -14.96 243.47 -17.68 Q 244.94 -20.4 247.11 -22.54 Q 249.29 -24.68 251.4 -25.5 L 251.4 -25.5 Q 252.48 -26.18 253.37 -26.18 L 253.37 -26.18 Q 253.84 -26.18 254.32 -26.11 Q 254.8 -26.04 255.34 -25.98 L 255.34 -25.98 Q 256.84 -25.77 257.62 -25.4 Q 258.4 -25.02 258.94 -24.28 L 258.94 -24.28 Q 260.64 -22.58 260.64 -20.33 L 260.64 -20.33 Q 260.37 -18.7 258.54 -16.59 Q 256.7 -14.48 254.12 -13.19 L 254.12 -13.19 Q 252.89 -12.78 251.33 -12.78 L 251.33 -12.78 Q 249.22 -12.78 247.93 -13.67 L 247.93 -13.67 Q 247.32 -13.87 246.98 -13.87 L 246.98 -13.87 Q 246.36 -13.87 246.06 -13.06 Q 245.75 -12.24 245.48 -10.06 L 245.48 -10.06 Q 245.41 -9.59 245.41 -8.7 L 245.41 -8.7 Q 245.41 -5.24 247.72 -4.9 L 247.72 -4.9 Q 249.29 -4.56 249.97 -4.56 L 249.97 -4.56 Q 250.78 -4.56 251.8 -5.1 L 251.8 -5.1 L 253.1 -5.85 Q 253.5 -6.05 253.84 -6.39 Q 254.18 -6.73 254.46 -7 L 254.46 -7 Q 254.59 -7.14 254.86 -7.45 Q 255.14 -7.75 255.37 -7.85 Q 255.61 -7.96 255.82 -7.96 L 255.82 -7.96 Q 256.09 -7.96 256.43 -7.65 Q 256.77 -7.34 256.97 -7.21 L 256.97 -7.21 Q 257.58 -7.21 257.24 -6.36 Q 256.9 -5.51 255.78 -4.39 Q 254.66 -3.26 253.23 -2.38 L 253.23 -2.38 Z M 253.16 -16.8 Q 254.32 -17.27 255.51 -18.5 Q 256.7 -19.72 256.7 -20.54 L 256.7 -20.54 Q 256.7 -21.35 256.09 -21.9 Q 255.48 -22.44 254.39 -22.44 L 254.39 -22.44 Q 253.57 -22.44 253.16 -22.3 L 253.16 -22.3 Q 252.21 -22.03 250.92 -20.84 Q 249.63 -19.65 248.68 -18.43 Q 247.72 -17.2 247.93 -17 L 247.93 -17 Q 248.27 -16.39 250.58 -16.39 L 250.58 -16.39 Q 252.14 -16.39 253.16 -16.8 L 253.16 -16.8 Z M 287.44 -3.13 Q 286.08 -3.13 285.19 -3.71 Q 284.31 -4.28 283.7 -5.64 L 283.7 -5.64 Q 283.08 -7.82 283.08 -10 L 283.08 -10 Q 283.08 -11.02 283.29 -11.42 L 283.29 -11.42 Q 283.56 -11.7 283.53 -12.61 Q 283.49 -13.53 283.49 -13.94 L 283.49 -13.94 Q 283.42 -15.5 282.54 -15.5 L 282.54 -15.5 Q 281.93 -15.5 281.18 -15.03 L 281.18 -15.03 Q 277.37 -12.65 274.79 -10.95 Q 272.2 -9.25 269.82 -7.14 L 269.82 -7.14 Q 268.87 -6.05 268.4 -5.24 Q 267.92 -4.42 267.72 -4.11 Q 267.51 -3.81 267.17 -3.81 L 267.17 -3.81 Q 266.76 -3.67 266.63 -3.67 L 266.63 -3.67 Q 266.29 -3.67 265.81 -4.05 Q 265.34 -4.42 265.2 -4.56 L 265.2 -4.56 Q 264.93 -4.83 264.32 -5.47 Q 263.7 -6.12 263.64 -6.39 L 263.64 -6.39 Q 263.64 -6.94 264.08 -8.91 Q 264.52 -10.88 264.79 -11.42 L 264.79 -11.42 Q 265 -11.42 265.4 -12.27 Q 265.81 -13.12 266.15 -13.6 L 266.15 -13.6 Q 266.36 -14.62 267.92 -18.29 L 267.92 -18.29 Q 268.87 -19.92 269.25 -21.01 Q 269.62 -22.1 269.76 -23.73 L 269.76 -23.73 L 269.76 -23.87 Q 269.76 -24.14 269.96 -24.31 Q 270.16 -24.48 270.37 -24.48 L 270.37 -24.48 Q 270.84 -24.82 271.25 -24.82 L 271.25 -24.82 Q 272.14 -24.82 273.02 -23.73 L 273.02 -23.73 Q 274.04 -22.44 274.04 -21.01 L 274.04 -21.01 Q 274.04 -19.24 271.8 -15.44 L 271.8 -15.44 Q 271.59 -14.96 271.22 -14.08 Q 270.84 -13.19 270.84 -12.85 L 270.84 -12.85 L 274.65 -15.44 Q 275.2 -16.05 277.58 -17.61 Q 279.96 -19.18 280.91 -19.38 L 280.91 -19.38 Q 282.54 -20.13 282.95 -20.13 L 282.95 -20.13 Q 283.76 -20.13 285.16 -18.9 Q 286.55 -17.68 286.82 -16.86 L 286.82 -16.86 Q 286.82 -16.12 286.96 -15.78 L 286.96 -15.78 Q 287.3 -14.42 287.3 -12.58 L 287.3 -12.58 Q 287.3 -11.36 287.13 -10.37 Q 286.96 -9.38 286.69 -9.25 L 286.69 -9.25 Q 286.69 -9.18 286.76 -9.04 Q 286.82 -8.91 287.03 -8.91 L 287.03 -8.91 L 287.03 -8.57 Q 286.48 -8.57 286.89 -7.41 Q 287.3 -6.26 287.98 -5.64 L 287.98 -5.64 Q 288.66 -4.96 288.66 -4.28 L 288.66 -4.28 Q 288.66 -3.47 287.44 -3.13 L 287.44 -3.13 Z M 313.41 -20.54 Q 313.82 -19.72 313.82 -18.97 L 313.82 -18.97 Q 313.82 -17.95 313 -16.93 L 313 -16.93 Q 312.8 -16.59 312.26 -15.88 Q 311.71 -15.16 311.3 -14.42 Q 310.9 -13.67 310.69 -12.72 L 310.69 -12.72 Q 310.42 -11.15 309.06 -6.05 L 309.06 -6.05 L 308.31 -3.4 L 307.22 0.82 Q 304.16 11.36 301.1 12.99 L 301.1 12.99 Q 300.22 13.33 299.4 13.33 L 299.4 13.33 Q 297.91 13.33 296.31 12.34 Q 294.71 11.36 293.56 9.66 L 293.56 9.66 Q 292.88 8.7 292.23 6.63 Q 291.58 4.56 291.99 4.28 L 291.99 4.28 Q 292.13 4.15 292.47 4.15 L 292.47 4.15 Q 292.94 4.15 293.49 4.45 Q 294.03 4.76 294.17 5.17 L 294.17 5.17 Q 294.44 5.92 295.32 7.14 Q 296.21 8.36 296.62 8.43 L 296.62 8.43 Q 297.7 8.98 298.45 8.98 L 298.45 8.98 Q 299.06 8.98 299.61 8.57 L 299.61 8.57 Q 300.7 7.68 301.48 6.29 Q 302.26 4.9 303.21 1.84 L 303.21 1.84 L 303.76 -0.14 Q 305.39 -6.12 306.14 -7.89 L 306.14 -7.89 Q 306.48 -8.98 306.82 -9.59 L 306.82 -9.59 L 305.59 -8.5 Q 304.78 -7.75 303.89 -7.07 Q 303.01 -6.39 302.06 -5.98 L 302.06 -5.98 Q 301.58 -5.37 299.68 -5.37 L 299.68 -5.37 Q 298.32 -5.37 296.96 -5.78 L 296.96 -5.78 Q 295.53 -6.53 295.19 -6.94 Q 294.85 -7.34 294.24 -8.84 L 294.24 -8.84 Q 293.96 -9.38 293.96 -10.54 L 293.96 -10.54 Q 293.96 -13.46 295.32 -16.8 L 295.32 -16.8 Q 296.62 -19.45 299.4 -22.44 Q 302.19 -25.43 304.23 -26.04 L 304.23 -26.04 Q 305.05 -26.45 305.73 -26.45 L 305.73 -26.45 Q 306.48 -26.45 307.29 -26.18 L 307.29 -26.18 Q 308.38 -26.04 308.99 -25.7 Q 309.6 -25.36 311.03 -24.14 L 311.03 -24.14 Q 312.66 -22.51 313.41 -20.54 L 313.41 -20.54 Z M 305.93 -13.8 Q 307.09 -15.37 307.56 -17.17 Q 308.04 -18.97 307.9 -20.74 L 307.9 -20.74 Q 307.84 -21.69 307.63 -22.07 Q 307.43 -22.44 306.88 -22.44 L 306.88 -22.44 Q 305.59 -22.44 303.89 -21.22 Q 302.19 -19.99 300.63 -18.02 L 300.63 -18.02 Q 299.61 -16.66 298.93 -14.76 L 298.93 -14.76 Q 298.11 -12.44 298.11 -10.47 L 298.11 -10.47 Q 298.11 -8.98 298.66 -8.77 L 298.66 -8.77 Q 300.76 -8.84 302.5 -10 Q 304.23 -11.15 305.93 -13.8 L 305.93 -13.8 Z M 321.71 -3.54 Q 320.42 -3.06 319.74 -3.06 L 319.74 -3.06 Q 318.78 -3.06 317.7 -3.88 L 317.7 -3.88 Q 316.74 -4.83 316.74 -5.78 L 316.74 -5.78 Q 316.74 -7.28 319.06 -8.84 L 319.06 -8.84 Q 320.42 -9.66 321.03 -9.66 L 321.03 -9.66 Q 321.37 -9.66 322.66 -9.18 L 322.66 -9.18 Q 324.5 -8.09 324.5 -6.66 L 324.5 -6.66 Q 324.5 -5.85 323.78 -5.03 Q 323.07 -4.22 321.71 -3.54 L 321.71 -3.54 Z M 338.98 -0.75 Q 338.03 -0.61 337.55 -0.61 L 337.55 -0.61 Q 335.04 -0.61 333.4 -2.18 Q 331.77 -3.74 331.77 -6.53 L 331.77 -6.53 Q 331.5 -9.52 333.1 -13.94 Q 334.7 -18.36 337.14 -21.35 L 337.14 -21.35 Q 338.84 -23.32 340.07 -24.55 Q 341.29 -25.77 342.31 -26.18 L 342.31 -26.18 Q 343.74 -26.79 345.51 -26.79 L 345.51 -26.79 Q 346.73 -26.52 347.92 -25.77 Q 349.11 -25.02 349.11 -24.28 L 349.11 -24.28 L 349.45 -23.94 Q 349.86 -23.94 350.2 -22.95 Q 350.54 -21.96 350.54 -20.81 L 350.54 -20.81 Q 350.54 -19.86 350.2 -19.18 L 350.2 -19.18 Q 349.93 -17.88 349.28 -16.93 Q 348.64 -15.98 348.02 -15.98 L 348.02 -15.98 Q 347.28 -15.98 347.28 -15.57 L 347.28 -15.57 Q 347.28 -15.3 347 -15.3 L 347 -15.3 Q 346.66 -15.3 346.19 -15.71 Q 345.71 -16.12 345.51 -16.66 L 345.51 -16.66 Q 345.51 -16.86 345.78 -17.82 Q 346.05 -18.77 346.32 -19.92 L 346.32 -19.92 Q 346.53 -20.74 346.53 -21.35 L 346.53 -21.35 Q 346.53 -22.71 345.51 -22.71 L 345.51 -22.71 Q 344.96 -22.71 344.42 -22.44 L 344.42 -22.44 Q 341.7 -20.94 339.59 -17.68 Q 337.48 -14.42 336.06 -8.7 L 336.06 -8.7 Q 335.72 -7.21 335.72 -6.32 L 335.72 -6.32 Q 335.72 -5.64 335.82 -5.24 Q 335.92 -4.83 336.06 -4.76 L 336.06 -4.76 Q 336.4 -4.62 337.48 -4.62 L 337.48 -4.62 Q 340 -4.62 341.02 -5.24 L 341.02 -5.24 Q 343.2 -6.39 345.85 -8.36 L 345.85 -8.36 Q 346.12 -8.57 346.66 -9.08 Q 347.21 -9.59 347.68 -9.79 L 347.68 -9.79 Q 348.16 -10.54 348.57 -10.71 Q 348.98 -10.88 349.86 -10.88 L 349.86 -10.88 Q 350.74 -10.61 351.29 -10.17 Q 351.83 -9.72 351.29 -9.45 L 351.29 -9.45 Q 351.08 -9.45 351.02 -9.32 Q 350.95 -9.18 350.95 -9.11 L 350.95 -9.11 Q 351.08 -8.77 349.86 -7.41 Q 348.64 -6.05 347.14 -4.86 Q 345.64 -3.67 345.1 -3.67 L 345.1 -3.67 Q 344.83 -3.67 344.62 -3.6 Q 344.42 -3.54 344.42 -3.26 L 344.42 -3.26 Q 344.42 -2.99 342.35 -2.01 Q 340.27 -1.02 338.98 -0.75 L 338.98 -0.75 Z M 358.43 0 Q 358.22 0.07 357.75 0.07 L 357.75 0.07 Q 356.66 0.07 356.05 -1.02 Q 355.44 -2.11 355.44 -4.01 L 355.44 -4.01 Q 355.44 -5.58 355.84 -7.62 L 355.84 -7.62 Q 356.59 -9.59 356.59 -10.47 L 356.59 -10.47 Q 356.8 -11.76 357.99 -15.13 Q 359.18 -18.5 359.52 -19.18 L 359.52 -19.18 Q 359.79 -19.18 359.99 -19.62 Q 360.2 -20.06 360.2 -20.6 L 360.2 -20.6 Q 360.2 -21.22 360.43 -21.86 Q 360.67 -22.51 360.94 -22.78 L 360.94 -22.78 Q 360.94 -22.98 361.11 -23.53 Q 361.28 -24.07 361.28 -24.28 L 361.28 -24.28 Q 361.28 -24.41 361.45 -24.79 Q 361.62 -25.16 361.62 -25.36 L 361.62 -25.36 Q 362.71 -27.47 365.43 -34.85 Q 368.15 -42.23 368.15 -43.04 L 368.15 -43.04 Q 368.15 -44.13 369.24 -44.13 L 369.24 -44.13 Q 369.58 -44.47 370.33 -44.47 L 370.33 -44.47 L 371.42 -43.38 Q 371.89 -42.91 372.03 -42.4 Q 372.16 -41.89 372.16 -40.87 L 372.16 -40.87 Q 372.16 -39.85 371.89 -39.1 Q 371.62 -38.35 370.53 -36.04 L 370.53 -36.04 Q 370.33 -35.56 369.99 -34.92 Q 369.65 -34.27 369.24 -33.32 L 369.24 -33.32 Q 369.1 -32.98 368.15 -30.87 L 368.15 -30.87 Q 367.47 -29.51 367.47 -29.31 L 367.47 -29.31 Q 367.47 -29.1 367.2 -28.46 Q 366.93 -27.81 366.72 -27.13 L 366.72 -27.13 Q 366.18 -26.04 364.99 -23.29 Q 363.8 -20.54 363.8 -20.26 L 363.8 -20.26 Q 363.8 -19.52 363.46 -19.18 L 363.46 -19.18 Q 363.26 -19.18 363.19 -18.87 Q 363.12 -18.56 363.12 -18.43 L 363.12 -18.43 Q 363.12 -17.75 362.03 -14.82 L 362.03 -14.82 L 361.42 -12.85 Q 360.13 -8.43 359.62 -6.39 Q 359.11 -4.35 359.11 -2.92 L 359.11 -2.92 Q 359.11 -1.22 359.01 -0.75 Q 358.9 -0.27 358.43 0 L 358.43 0 Z M 372.57 -1.02 Q 371.76 -1.02 371.28 -1.29 Q 370.8 -1.56 369.92 -2.31 L 369.92 -2.31 Q 367.68 -4.69 367.68 -6.66 L 367.68 -6.66 Q 367.68 -7.14 367.74 -7.34 L 367.74 -7.34 Q 367.95 -7.82 367.91 -8.3 Q 367.88 -8.77 367.88 -8.91 L 367.88 -8.91 Q 367.61 -9.18 367.61 -9.28 Q 367.61 -9.38 367.74 -9.49 Q 367.88 -9.59 367.95 -9.72 L 367.95 -9.72 Q 368.36 -9.72 368.22 -10.47 L 368.22 -10.47 Q 368.08 -11.02 368.76 -12.89 Q 369.44 -14.76 370.46 -16.32 L 370.46 -16.32 Q 371.21 -17.54 372.67 -19.38 Q 374.14 -21.22 375.29 -22.17 L 375.29 -22.17 Q 376.92 -23.6 378.22 -24.28 Q 379.51 -24.96 381.07 -25.3 L 381.07 -25.3 Q 382.43 -25.64 382.91 -25.64 L 382.91 -25.64 Q 383.38 -25.64 383.76 -25.4 Q 384.13 -25.16 384.74 -24.55 L 384.74 -24.55 Q 386.58 -23.73 387.29 -22.47 Q 388.01 -21.22 388.01 -18.56 L 388.01 -18.56 Q 388.01 -14.14 384.4 -8.98 L 384.4 -8.98 Q 382.84 -6.73 381.48 -5.54 Q 380.12 -4.35 377.88 -2.99 L 377.88 -2.99 Q 376.45 -1.97 375.26 -1.53 Q 374.07 -1.09 372.57 -1.02 L 372.57 -1.02 Z M 379.1 -8.23 Q 380.73 -10.06 381.72 -11.7 Q 382.7 -13.33 383.59 -15.84 L 383.59 -15.84 Q 383.93 -17 383.93 -18.63 L 383.93 -18.63 Q 383.93 -20.67 383.38 -20.94 L 383.38 -20.94 Q 382.7 -21.28 382.02 -21.28 L 382.02 -21.28 Q 380.53 -21.28 378.9 -19.92 L 378.9 -19.92 Q 376.92 -18.22 375.36 -15.74 Q 373.8 -13.26 372.16 -9.59 L 372.16 -9.59 Q 371.48 -8.16 371.48 -6.8 L 371.48 -6.8 Q 371.48 -5.78 371.99 -5.17 Q 372.5 -4.56 373.39 -4.56 L 373.39 -4.56 Q 375.63 -4.56 379.1 -8.23 L 379.1 -8.23 Z M 407.46 -0.14 Q 405.82 -1.7 405.01 -4.76 L 405.01 -4.76 Q 404.87 -5.17 404.87 -6.19 Q 404.87 -7.21 404.87 -7.62 L 404.87 -7.62 Q 404.46 -6.6 403.38 -5.78 L 403.38 -5.78 Q 401.81 -4.22 400.25 -3.47 L 400.25 -3.47 Q 397.87 -1.9 396.37 -1.9 L 396.37 -1.9 Q 395.01 -1.9 393.79 -3.4 L 393.79 -3.4 Q 392.9 -4.15 392.46 -4.9 Q 392.02 -5.64 392.02 -6.73 L 392.02 -6.73 Q 392.02 -7.48 392.22 -8.36 L 392.22 -8.36 Q 392.36 -10.88 392.94 -13.19 Q 393.52 -15.5 395.15 -19.11 L 395.15 -19.11 Q 397.32 -23.39 398.28 -24.82 L 398.28 -24.82 Q 398.62 -24.96 399.16 -24.96 L 399.16 -24.96 Q 399.84 -24.96 400.28 -24.55 Q 400.72 -24.14 400.79 -23.46 L 400.79 -23.46 Q 401 -23.19 401 -22.71 L 401 -22.71 Q 401 -21.01 398.96 -17.14 L 398.96 -17.14 Q 396.3 -10.74 396.3 -8.3 L 396.3 -8.3 Q 396.3 -6.87 397.12 -6.6 L 397.12 -6.6 Q 397.46 -6.39 397.87 -6.39 L 397.87 -6.39 Q 399.57 -6.39 401.95 -8.7 Q 404.33 -11.02 406.5 -16.12 L 406.5 -16.12 Q 407.46 -18.43 407.66 -20.88 L 407.66 -20.88 Q 407.59 -21.08 407.59 -21.49 L 407.59 -21.49 Q 407.59 -22.71 408.82 -23.46 L 408.82 -23.46 Q 409.09 -23.87 409.56 -24.11 Q 410.04 -24.34 410.18 -24.07 L 410.18 -24.07 L 411.26 -24.14 Q 411.47 -24.21 411.67 -23.77 Q 411.88 -23.32 412.08 -23.19 L 412.08 -23.19 Q 412.56 -22.78 412.56 -21.69 L 412.56 -21.69 Q 412.56 -19.45 410.58 -14.82 L 410.58 -14.82 Q 409.29 -12.1 408.85 -10.64 Q 408.41 -9.18 408.34 -7.82 L 408.34 -7.82 Q 408.34 -5.24 410.31 -3.54 L 410.31 -3.54 Q 410.99 -3.06 411.13 -2.52 Q 411.26 -1.97 411.2 -1.02 L 411.2 -1.02 Q 411.06 -0.41 410.41 -0.03 Q 409.77 0.34 409.02 0.34 L 409.02 0.34 Q 408.14 0.34 407.46 -0.14 L 407.46 -0.14 Z M 434.18 1.29 Q 432.48 1.7 431.87 -0.2 L 431.87 -0.2 Q 430.92 -2.86 430.92 -5.78 L 430.92 -5.78 Q 430.92 -6.6 430.98 -6.94 L 430.98 -6.94 L 431.12 -8.36 L 428.47 -6.26 Q 426.29 -4.35 424.15 -3.4 Q 422.01 -2.45 420.24 -2.45 L 420.24 -2.45 Q 419.08 -2.65 418.03 -3.43 Q 416.98 -4.22 416.5 -5.3 L 416.5 -5.3 Q 416.23 -5.85 416.23 -6.94 L 416.23 -6.94 Q 416.23 -9.45 417.59 -12.89 Q 418.95 -16.32 420.99 -18.56 L 420.99 -18.56 Q 423.91 -22.98 427.52 -22.98 L 427.52 -22.98 Q 429.22 -22.98 430.92 -21.96 L 430.92 -21.96 Q 432.62 -21.28 432.89 -21.28 L 432.89 -21.28 Q 433.3 -21.28 433.5 -21.62 Q 433.7 -21.96 433.91 -22.85 L 433.91 -22.85 Q 434.66 -25.98 435.34 -28.08 L 435.34 -28.08 Q 436.83 -32.57 437.92 -35.29 Q 439.01 -38.01 440.57 -41.28 L 440.57 -41.28 Q 441.25 -42.7 441.76 -43.15 Q 442.27 -43.59 442.88 -43.52 L 442.88 -43.52 Q 444.38 -43.52 445.2 -41.48 L 445.2 -41.48 Q 445.4 -41 445.4 -40.53 L 445.4 -40.53 Q 445.4 -40.05 444.99 -39.24 L 444.99 -39.24 Q 443.22 -36.18 440.64 -29.24 Q 438.06 -22.3 436.63 -17.2 L 436.63 -17.2 Q 436.02 -14.96 435.57 -10.74 Q 435.13 -6.53 435.13 -3.74 L 435.13 -3.74 Q 435.13 -2.52 435.27 -1.97 L 435.27 -1.97 Q 435.61 -0.82 435.61 0.07 L 435.61 0.07 Q 435.61 0.75 435.27 0.99 Q 434.93 1.22 434.18 1.29 L 434.18 1.29 Z M 422.69 -6.26 Q 424.25 -6.6 426.5 -8.3 L 426.5 -8.3 Q 426.9 -8.57 428.47 -9.72 Q 430.03 -10.88 430.85 -12.17 Q 431.66 -13.46 432 -15.1 L 432 -15.1 Q 432.07 -16.32 431.77 -17.1 Q 431.46 -17.88 430.58 -18.63 L 430.58 -18.63 Q 429.9 -19.11 428.88 -19.11 L 428.88 -19.11 Q 427.04 -19.11 425.48 -17.61 L 425.48 -17.61 Q 423.64 -15.98 422.21 -13.4 Q 420.78 -10.81 420.04 -7.41 L 420.04 -7.41 Q 419.83 -6.12 421.4 -6.12 L 421.4 -6.12 Q 422.21 -6.12 422.69 -6.26 L 422.69 -6.26 Z" stroke-linecap="round" />
</g>
<g transform="matrix(2.2294560241868915 0 0 2.2294560241868924 640.0153846153846 365.8863576972187)" id="logo-logo"  >
<g style=""  paint-order="stroke"   >
		<g transform="matrix(0.15351953197654344 0 0 -0.15351953197654344 -87.98872187539797 6.892288556797951)"  >
<path style="stroke: none; stroke-width: 1; stroke-dasharray: none; stroke-linecap: butt; stroke-dashoffset: 0; stroke-linejoin: miter; stroke-miterlimit: 4; fill: rgb(127,216,88); fill-rule: evenodd; opacity: 1;"  paint-order="stroke"  transform=" translate(-478.318295, -805.5320000000002)" d="m 460.402 1173.67 c 31.114 -21.62 51.489 -57.6 51.489 -98.36 c 0 -38.19 -17.895 -72.2 -45.754 -94.111 l 0.453 -38.75 c 6.199 19.602 17.527 37.86 33.883 52.629 c 30.246 27.312 70.617 36.312 107.507 27.702 c 1.594 -12.46 1.219 -25.112 -1.093 -37.452 h 44.683 c 32.809 3.621 66.953 -6.258 93.379 -30.117 c 10.031 -9.063 18.176 -19.438 24.399 -30.625 l 0.144 57.437 c -32.859 -3.675 -67.082 6.2 -93.551 30.097 c -30.25 27.31 -43.308 66.55 -38.5 104.13 c 36.895 8.61 77.258 -0.39 107.508 -27.7 c 10.211 -9.22 18.461 -19.81 24.727 -31.23 l 0.152 59.32 c -32.961 -3.78 -67.324 6.08 -93.887 30.06 c -20.726 18.71 -33.378 43.03 -37.75 68.57 H 434.34 c -10.578 0 -19.227 8.65 -19.227 19.22 v 0.01 c 0 10.57 8.649 19.22 19.227 19.22 h 214.683 c 1.258 0 2.489 -0.12 3.68 -0.36 c 32.461 3.28 66.125 -6.65 92.246 -30.23 c 10.391 -9.39 18.754 -20.18 25.063 -31.83 l 0.066 25.97 c -18.883 18.24 -31.781 42.63 -35.465 69.94 H 581.926 c -10.571 0 -19.223 8.65 -19.223 19.22 v 0.01 c 0 10.57 8.652 19.22 19.223 19.22 h 153.679 c 2.465 13.07 7.055 25.39 13.395 36.59 h -54.203 c -10.574 0 -19.223 8.65 -19.223 19.23 v 0 c 0 10.57 8.649 19.22 19.223 19.22 h 72.058 c 3.02 0 15.969 -0.5 18.161 1.02 c 31.109 -21.61 51.484 -57.61 51.484 -98.36 c 0 -37.27 -17.051 -70.56 -43.762 -92.51 l 0.114 -45.1 c 5.8 21.39 17.601 41.42 35.277 57.38 c 30.246 27.31 70.613 36.3 107.504 27.7 c 4.808 -37.58 -8.254 -76.82 -38.5 -104.13 c -29.332 -26.49 -68.192 -35.75 -104.164 -28.43 l 0.215 -85.9 c 5.91 20.94 17.601 40.52 34.945 56.18 c 30.246 27.31 70.613 36.31 107.504 27.7 c 4.808 -37.58 -8.254 -76.82 -38.5 -104.13 c -29.246 -26.405 -67.949 -35.686 -103.828 -28.495 l 0.207 -83.437 c 6.015 20.503 17.593 39.652 34.617 55.023 c 30.246 27.309 70.613 36.309 107.504 27.703 c 4.808 -37.578 -8.254 -76.82 -38.5 -104.133 c -29.156 -26.32 -67.711 -35.633 -103.496 -28.562 l 0.195 -78.285 c 6.102 20.109 17.566 38.863 34.297 53.968 c 30.246 27.309 70.613 36.309 107.504 27.7 c 4.808 -37.579 -8.254 -76.817 -38.5 -104.129 c -29.067 -26.246 -67.481 -35.575 -103.172 -28.625 l 0.195 -78.719 c 6.176 19.703 17.535 38.07 33.973 52.91 c 30.246 27.313 70.613 36.309 107.504 27.703 c 4.808 -37.574 -8.254 -76.816 -38.5 -104.129 c -28.981 -26.164 -67.246 -35.515 -102.852 -28.687 l 0.668 -267.711 C 847.043 407.801 954.953 445.012 954.953 445.012 C 865.84 383.086 816.785 309.203 792.043 260.883 l 0.469 -11.852 c -7.348 0.254 -14.754 -0.328 -22.227 0 l 0.473 11.852 c -24.742 48.32 -73.801 122.203 -162.914 184.129 c 0 0 107.91 -37.211 160.004 -122.797 l 0.664 266.195 c -32.559 -3.371 -66.36 6.543 -92.571 30.203 c -30.25 27.313 -43.308 66.555 -38.5 104.129 c 36.895 8.606 77.258 -0.39 107.508 -27.703 c 9.692 -8.75 17.617 -18.73 23.758 -29.48 l 0.133 53.746 c -32.66 -3.473 -66.606 6.429 -92.899 30.168 c -20.578 18.582 -33.199 42.687 -37.652 68.031 h -42.894 c -6.399 -12.266 -15.047 -23.617 -25.918 -33.43 c -28.395 -25.644 -65.715 -35.14 -100.704 -29.082 l 0.84 -72.015 c 6.567 16.382 16.879 31.558 30.86 44.187 c 30.246 27.309 70.617 36.309 107.507 27.699 c 4.805 -37.578 -8.253 -76.816 -38.503 -104.129 c -27.973 -25.257 -64.61 -34.851 -99.145 -29.339 l 0.746 -64.231 c 6.598 15.047 16.41 28.965 29.395 40.688 c 30.246 27.312 70.617 36.308 107.507 27.703 c 4.805 -37.578 -8.253 -76.817 -38.503 -104.129 c -27.571 -24.895 -63.547 -34.567 -97.637 -29.571 l 3.297 -282.511 c 0 0 -38.309 133.961 -184.672 235.668 c 0 0 107.91 -37.211 160.008 -122.797 l 0.558 170.504 c -35.57 -6.793 -73.793 2.566 -102.742 28.707 c -20.672 18.664 -33.312 42.898 -37.715 68.367 H 200.148 c -10.574 0 -19.222 8.652 -19.222 19.223 v 0.004 c 0 10.574 8.648 19.226 19.222 19.226 h 126.547 c 6.934 0.602 13.922 0.602 20.871 0 h 7.629 c 3.707 0 7.176 -1.066 10.118 -2.902 c 18.742 -4.528 36.66 -13.66 51.98 -27.492 c 16.383 -14.793 27.723 -33.086 33.914 -52.719 l 0.25 76.976 c -35.691 -6.953 -74.105 2.383 -103.168 28.625 c -4.504 4.067 -8.621 8.395 -12.359 12.946 c -0.598 -0.055 -1.207 -0.086 -1.821 -0.086 H 102.777 c -10.57 0 -19.2223 8.648 -19.2223 19.226 v 0 c 0 10.575 8.6523 19.223 19.2223 19.223 h 212.051 c -5.601 17.027 -7.308 35.109 -5.043 52.82 c 36.891 8.61 77.262 -0.39 107.508 -27.699 c 16.762 -15.141 28.238 -33.937 34.332 -54.082 l 0.27 82.449 c -35.817 -7.109 -74.422 2.188 -103.606 28.543 c -19.941 18.004 -32.414 41.196 -37.219 65.68 H 20.9102 c -10.5743 0 -19.22661 8.648 -19.22661 19.223 v 0.003 c 0 10.571 8.65231 19.223 19.22661 19.223 H 309.793 c 36.891 8.606 77.254 -0.394 107.5 -27.703 c 17.168 -15.5 28.797 -34.844 34.766 -55.543 l 0.277 85.238 c -33.566 -6.793 -69.629 0.844 -98.117 23.438 h -94.496 c -10.575 0 -19.227 8.648 -19.227 19.222 v 0.004 c 0 10.571 8.652 19.223 19.227 19.223 h 62.652 c -5.641 10.805 -9.531 22.32 -11.652 34.109 H 168.242 c -10.574 0 -19.222 8.653 -19.222 19.229 v 0 c 0 10.57 8.648 19.22 19.222 19.22 h 151.383 c 34.098 5.01 70.09 -4.66 97.668 -29.562 c 17.598 -15.887 29.375 -35.816 35.203 -57.101 l 0.145 44.855 c -26.688 21.948 -43.719 55.228 -43.719 92.478 c 0 40.76 20.371 76.74 51.48 98.36 z M 592.508 946.879 c -6.035 -10.277 -13.715 -19.816 -23.031 -28.227 c -28.821 -26.027 -66.832 -35.422 -102.274 -28.8 l 0.902 -77.489 c 6.45 17.891 17.266 34.5 32.368 48.137 c 30.246 27.309 70.617 36.309 107.507 27.703 c 1.372 -10.719 1.286 -21.578 -0.234 -32.25 H 651 c 32.98 3.801 67.371 -6.055 93.949 -30.051 c 9.86 -8.906 17.895 -19.082 24.078 -30.054 l 0.133 52.8 c -32.758 -3.57 -66.84 6.317 -93.219 30.133 c -20.597 18.598 -33.222 42.731 -37.664 68.098 h -45.769" stroke-linecap="round" />
</g>
		<g transform="matrix(0.15351953197654344 0 0 -0.15351953197654344 11.111544916668322 95.14865467847133)"  >
<path style="stroke: none; stroke-width: 1; stroke-dasharray: none; stroke-linecap: butt; stroke-dashoffset: 0; stroke-linejoin: miter; stroke-miterlimit: 4; fill: rgb(0,0,0); fill-rule: evenodd; opacity: 1;"  paint-order="stroke"  transform=" translate(-1123.8404999999998, -230.64511111111108)" d="m 146.441 158.98 c 0 0 898.019 322.493 1954.799 0 c 0 0 -955.07 114.11 -1954.799 0" stroke-linecap="round" />
</g>
		<g transform="matrix(0.15351953197654344 0 0 -0.15351953197654344 75.75902508897121 17.051559385908604)"  >
<path style="stroke: none; stroke-width: 1; stroke-dasharray: none; stroke-linecap: butt; stroke-dashoffset: 0; stroke-linejoin: miter; stroke-miterlimit: 4; fill: rgb(0,0,0); fill-rule: evenodd; opacity: 1;"  paint-order="stroke"  transform=" translate(-1544.9431397747258, -739.3562456949198)" d="m 1866.78 1036.87 l 1.45 -0.15 l -3.23 -35.22 l -1.46 0.16 c -30.27 3.25 -57.17 -19.531 -59.96 -49.851 l 36.67 -3.375 l -14.82 -161.145 l 77.55 -7.129 c 45.18 -4.156 39.01 -147.035 42.9 -183.824 l -0.04 -0.008 c 112.18 -31.91 155.13 -188.683 149.47 -250.226 c -5.66 -61.536 -0.56 -5.414 -0.89 -8.106 l -41.85 3.852 c 0.35 2.683 0.67 5.382 0.92 8.105 c 10.38 112.871 -72.7 212.781 -185.57 223.164 c -112.87 10.383 -212.78 -72.699 -223.17 -185.57 c -0.24 -2.723 -0.42 -5.434 -0.57 -8.141 l -41.85 3.852 l -71.41 6.566 l -51.95 4.778 c 19.45 37.628 32.14 79.546 36.25 124.32 c 17.12 186.113 -119.87 350.863 -305.99 367.98 c -16.22 1.493 -32.27 1.789 -48.08 1.008 c -5.11 116.95 -34.01 227.73 -82.02 327.59 c 12.26 31.99 45.11 53.71 80.36 50.47 c 44.17 -4.06 88.34 -8.13 132.51 -12.19 c 44.17 -4.06 88.34 -8.12 132.55 -12.19 c 41.49 -3.82 73.54 -41.02 71.09 -82.66 c -2.99 -50.71 -5.96 -101.46 -8.91 -152.12 c -2.95 -50.665 -5.94 -101.419 -8.9 -152.076 c -0.99 -16.839 -3.29 -27.828 -8.63 -34.679 l 243.9 -22.434 l 14.82 161.145 l 40.46 -3.723 c 4.57 49.767 48.69 87.027 98.4 81.827 z m -3.34 -512.46 c 85.97 -7.91 149.25 -84.008 141.35 -169.976 c -7.91 -85.969 -84.01 -149.25 -169.98 -141.344 c -85.97 7.91 -149.25 84.008 -141.35 169.973 c 7.91 85.972 84.01 149.253 169.98 141.347 z m -9.56 -103.957 c 28.55 -2.629 49.57 -27.902 46.94 -56.461 c -2.62 -28.554 -27.89 -49.57 -56.45 -46.945 c -28.56 2.625 -49.58 27.902 -46.95 56.461 c 2.63 28.551 27.9 49.574 56.46 46.945 z m -650.43 403.582 c 151.39 -13.926 262.83 -147.941 248.91 -299.328 c -13.93 -151.394 -147.94 -262.832 -299.33 -248.91 c -61.48 5.652 -116.36 31.113 -158.944 69.492 c 34.154 45.606 63.764 94.809 88.234 146.895 c 17.75 -29.45 48.79 -50.356 85.66 -53.746 c 61.57 -5.668 116.08 39.656 121.74 101.226 c 5.67 61.57 -39.66 116.074 -101.23 121.734 c -17.3 1.594 -34.04 -0.843 -49.31 -6.535 c 13.01 54.746 20.67 111.559 22.42 169.864 c 13.74 0.816 27.72 0.609 41.85 -0.692 z m 463.71 -120.519 l 246.87 -22.707 l -2.58 -28.086 l -246.88 22.707 z m -15.87 60.886 l 246.87 -22.703 l -2.58 -28.082 l -246.88 22.707 z m -441.72 171.45 c 1.38 -0.114 2.75 -0.204 4.13 -0.329 c 73.32 -6.746 139.95 -33.523 195.03 -74.414 c 19.95 6.325 34.7 23.356 35.93 44.493 c 2.03 34.824 4.09 69.707 6.12 104.528 c 2.03 34.82 4.06 69.71 6.12 104.55 c 1.69 28.62 -20.34 54.2 -48.86 56.83 c -30.39 2.79 -60.75 5.58 -91.11 8.37 c -30.36 2.8 6.35 -0.58 -24.02 2.21 c -28.51 2.62 -54.75 -18.52 -58.3 -46.96 c -4.34 -34.64 -8.71 -69.31 -13.06 -103.92 l -11.98 -95.358" stroke-linecap="round" />
</g>
		<g transform="matrix(0.15351953197654344 0 0 -0.15351953197654344 -51.5778489268892 0)"  >
<path style="stroke: none; stroke-width: 1; stroke-dasharray: none; stroke-linecap: butt; stroke-dashoffset: 0; stroke-linejoin: miter; stroke-miterlimit: 4; fill: rgb(127,216,88); fill-rule: evenodd; opacity: 1;"  paint-order="stroke"  transform=" translate(-715.4925, -850.42719)" d="m 318.582 1693.87 c 465.82 0 843.438 -377.62 843.438 -843.444 c 0 -465.821 -377.618 -843.44162 -843.438 -843.44162 c -16.664 0 -33.195 0.53906 -49.617 1.48828 C 711.684 34.1641 1062.79 401.27 1062.79 850.426 c 0 449.164 -351.106 816.264 -793.825 841.954 c 16.422 0.95 32.953 1.49 49.617 1.49" stroke-linecap="round" />
</g>
</g>
</g>
</svg>